<mxfile host="65bd71144e">
    <diagram id="Smpq1kg5UtKRSIPrC06Q" name="Page-1">
        <mxGraphModel dx="1053" dy="731" grid="1" gridSize="10" guides="1" tooltips="1" connect="1" arrows="1" fold="1" page="1" pageScale="1" pageWidth="827" pageHeight="1169" math="0" shadow="0">
            <root>
                <mxCell id="0"/>
                <mxCell id="1" parent="0"/>
                <mxCell id="16" value="" style="edgeStyle=none;html=1;" parent="1" source="8" target="9" edge="1">
                    <mxGeometry relative="1" as="geometry"/>
                </mxCell>
                <mxCell id="8" value="Frontend (headless)" style="html=1;dashed=0;whiteSpace=wrap;fontStyle=1" parent="1" vertex="1">
                    <mxGeometry x="130" y="80" width="100" height="50" as="geometry"/>
                </mxCell>
                <mxCell id="17" value="" style="edgeStyle=none;html=1;" parent="1" source="9" target="10" edge="1">
                    <mxGeometry relative="1" as="geometry"/>
                </mxCell>
                <mxCell id="9" value="API Gateway (Nginx)&lt;div&gt;localhost:8080&lt;br&gt;&lt;/div&gt;" style="html=1;dashed=0;whiteSpace=wrap;" parent="1" vertex="1">
                    <mxGeometry x="130" y="170" width="100" height="50" as="geometry"/>
                </mxCell>
                <mxCell id="20" value="" style="edgeStyle=none;html=1;" parent="1" source="10" target="19" edge="1">
                    <mxGeometry relative="1" as="geometry"/>
                </mxCell>
                <mxCell id="10" value="" style="image;sketch=0;aspect=fixed;html=1;points=[];align=center;fontSize=12;image=img/lib/mscae/Docker.svg;" parent="1" vertex="1">
                    <mxGeometry x="155" y="260" width="50" height="41" as="geometry"/>
                </mxCell>
                <mxCell id="11" value="" style="swimlane;startSize=0;" parent="1" vertex="1">
                    <mxGeometry x="50" y="410" width="295" height="160" as="geometry"/>
                </mxCell>
                <mxCell id="12" value="User Profile Service&amp;nbsp;&lt;br&gt;localhost:5001" style="html=1;dashed=0;whiteSpace=wrap;" parent="11" vertex="1">
                    <mxGeometry x="20" y="60" width="100" height="50" as="geometry"/>
                </mxCell>
                <mxCell id="53" value="" style="edgeStyle=none;html=1;" edge="1" parent="11" source="15" target="12">
                    <mxGeometry relative="1" as="geometry"/>
                </mxCell>
                <mxCell id="54" value="http" style="edgeLabel;html=1;align=center;verticalAlign=middle;resizable=0;points=[];" vertex="1" connectable="0" parent="53">
                    <mxGeometry x="0.0081" relative="1" as="geometry">
                        <mxPoint as="offset"/>
                    </mxGeometry>
                </mxCell>
                <mxCell id="15" value="Health Goal Service&amp;nbsp;&lt;br&gt;localhost:5002" style="html=1;dashed=0;whiteSpace=wrap;" parent="11" vertex="1">
                    <mxGeometry x="170" y="40" width="100" height="50" as="geometry"/>
                </mxCell>
                <mxCell id="2" value="In Memory DB" style="shape=cylinder;whiteSpace=wrap;html=1;boundedLbl=1;backgroundOutline=1;" parent="11" vertex="1">
                    <mxGeometry x="190" y="100" width="60" height="50" as="geometry"/>
                </mxCell>
                <mxCell id="23" style="edgeStyle=none;html=1;exitX=0;exitY=0.5;exitDx=0;exitDy=0;entryX=0.5;entryY=0;entryDx=0;entryDy=0;" parent="1" source="19" target="12" edge="1">
                    <mxGeometry relative="1" as="geometry"/>
                </mxCell>
                <mxCell id="19" value="Docker Network" style="shape=rhombus;html=1;dashed=0;whiteSpace=wrap;perimeter=rhombusPerimeter;" parent="1" vertex="1">
                    <mxGeometry x="140" y="320" width="80" height="70" as="geometry"/>
                </mxCell>
                <mxCell id="24" style="edgeStyle=none;html=1;exitX=1;exitY=0.5;exitDx=0;exitDy=0;entryX=0.5;entryY=0;entryDx=0;entryDy=0;" parent="1" source="19" target="15" edge="1">
                    <mxGeometry relative="1" as="geometry"/>
                </mxCell>
                <mxCell id="38" value="" style="edgeStyle=none;html=1;" parent="1" source="39" target="41" edge="1">
                    <mxGeometry relative="1" as="geometry"/>
                </mxCell>
                <mxCell id="39" value="Frontend (headless)&lt;br&gt;S3" style="html=1;dashed=0;whiteSpace=wrap;fontStyle=1" parent="1" vertex="1">
                    <mxGeometry x="568" y="81" width="100" height="50" as="geometry"/>
                </mxCell>
                <mxCell id="40" value="" style="edgeStyle=none;html=1;" parent="1" source="41" edge="1">
                    <mxGeometry relative="1" as="geometry">
                        <mxPoint x="618" y="261" as="targetPoint"/>
                    </mxGeometry>
                </mxCell>
                <mxCell id="41" value="AWS API Gateway" style="html=1;dashed=0;whiteSpace=wrap;" parent="1" vertex="1">
                    <mxGeometry x="562" y="170" width="112" height="50" as="geometry"/>
                </mxCell>
                <mxCell id="44" value="" style="swimlane;startSize=0;" parent="1" vertex="1">
                    <mxGeometry x="488" y="411" width="295" height="160" as="geometry"/>
                </mxCell>
                <mxCell id="45" value="User Profile Service&amp;nbsp;&lt;br&gt;Fargate" style="html=1;dashed=0;whiteSpace=wrap;" parent="44" vertex="1">
                    <mxGeometry x="20" y="60" width="100" height="50" as="geometry"/>
                </mxCell>
                <mxCell id="56" style="edgeStyle=none;html=1;entryX=1;entryY=0.5;entryDx=0;entryDy=0;" edge="1" parent="44" source="46" target="45">
                    <mxGeometry relative="1" as="geometry"/>
                </mxCell>
                <mxCell id="57" value="HTTP" style="edgeLabel;html=1;align=center;verticalAlign=middle;resizable=0;points=[];" vertex="1" connectable="0" parent="56">
                    <mxGeometry x="-0.0044" y="-1" relative="1" as="geometry">
                        <mxPoint as="offset"/>
                    </mxGeometry>
                </mxCell>
                <mxCell id="46" value="Health Goal Service&amp;nbsp;&lt;br&gt;Fargage" style="html=1;dashed=0;whiteSpace=wrap;" parent="44" vertex="1">
                    <mxGeometry x="170" y="40" width="100" height="50" as="geometry"/>
                </mxCell>
                <mxCell id="47" value="In Memory DB" style="shape=cylinder;whiteSpace=wrap;html=1;boundedLbl=1;backgroundOutline=1;" parent="44" vertex="1">
                    <mxGeometry x="190" y="100" width="60" height="50" as="geometry"/>
                </mxCell>
                <mxCell id="48" style="edgeStyle=none;html=1;exitX=0;exitY=0.5;exitDx=0;exitDy=0;entryX=0.5;entryY=0;entryDx=0;entryDy=0;" parent="1" source="49" target="45" edge="1">
                    <mxGeometry relative="1" as="geometry"/>
                </mxCell>
                <mxCell id="49" value="" style="shape=rhombus;html=1;dashed=0;whiteSpace=wrap;perimeter=rhombusPerimeter;" parent="1" vertex="1">
                    <mxGeometry x="578" y="260" width="80" height="70" as="geometry"/>
                </mxCell>
                <mxCell id="50" style="edgeStyle=none;html=1;exitX=1;exitY=0.5;exitDx=0;exitDy=0;entryX=0.5;entryY=0;entryDx=0;entryDy=0;" parent="1" source="49" target="46" edge="1">
                    <mxGeometry relative="1" as="geometry"/>
                </mxCell>
                <mxCell id="51" value="&lt;b&gt;&lt;font style=&quot;font-size: 24px;&quot;&gt;Localhost&lt;/font&gt;&lt;/b&gt;" style="text;html=1;align=center;verticalAlign=middle;resizable=0;points=[];autosize=1;strokeColor=none;fillColor=none;" parent="1" vertex="1">
                    <mxGeometry x="110" y="23" width="140" height="40" as="geometry"/>
                </mxCell>
                <mxCell id="52" value="&lt;b&gt;&lt;font style=&quot;font-size: 24px;&quot;&gt;AWS&lt;/font&gt;&lt;/b&gt;" style="text;html=1;align=center;verticalAlign=middle;resizable=0;points=[];autosize=1;strokeColor=none;fillColor=none;" parent="1" vertex="1">
                    <mxGeometry x="578" y="23" width="80" height="40" as="geometry"/>
                </mxCell>
            </root>
        </mxGraphModel>
    </diagram>
</mxfile>